<svg xmlns="http://www.w3.org/2000/svg" viewBox="0 0 1024 1024" width="1024" height="1024">
  <defs>
    <!-- Orange radial gradient covering the whole tile, lit from top-left -->
    <radialGradient id="disc" cx="0.35" cy="0.3" r="0.95">
      <stop offset="0" stop-color="#FFB366"/>
      <stop offset="1" stop-color="#FF8C24"/>
    </radialGradient>
    <filter id="soft-blur" x="-10%" y="-10%" width="120%" height="120%">
      <feGaussianBlur stdDeviation="14"/>
    </filter>
    <!-- Squircle clip so the shadow blur doesn't bleed past the icon edge -->
    <clipPath id="squircle-clip">
      <rect x="0" y="0" width="1024" height="1024" rx="225" ry="225"/>
    </clipPath>
  </defs>

  <!-- Squircle background, filling the full 1024x1024 canvas the way macOS app
       icons are expected to. The 225px corner radius approximates the Apple
       Big Sur "squircle" shape. -->
  <rect x="0" y="0" width="1024" height="1024" rx="225" ry="225" fill="url(#disc)"/>

  <!-- Long ambient shadow trailing toward bottom-right, in the spirit of the
       original Swarm bee icon. -->
  <g clip-path="url(#squircle-clip)" opacity="0.22">
    <g filter="url(#soft-blur)">
      <circle cx="560" cy="408" r="80" fill="#7a3f00"/>
      <circle cx="455" cy="508" r="76" fill="#7a3f00"/>
      <circle cx="670" cy="508" r="76" fill="#7a3f00"/>
      <circle cx="350" cy="610" r="72" fill="#7a3f00"/>
      <circle cx="775" cy="610" r="72" fill="#7a3f00"/>
    </g>
  </g>

  <!-- Pins, V-formation, apex at top.
       Each pin: cream outer disc + warm orange inner dot, mirroring the
       map pin glyph used inside the app. -->
  <g fill="#FFF3DC">
    <circle cx="512" cy="372" r="72"/>
    <circle cx="410" cy="472" r="68"/>
    <circle cx="614" cy="472" r="68"/>
    <circle cx="308" cy="572" r="64"/>
    <circle cx="716" cy="572" r="64"/>
  </g>
  <g fill="#FF7A14">
    <circle cx="512" cy="372" r="22"/>
    <circle cx="410" cy="472" r="20"/>
    <circle cx="614" cy="472" r="20"/>
    <circle cx="308" cy="572" r="18"/>
    <circle cx="716" cy="572" r="18"/>
  </g>
</svg>
